# xmcd
#
# Track frame offsets: 
#        150
#        18099
#        34581
#        52031
#        68433
#        89949
#        104644
#        121376
#        138076
#        159304
#        178161
#        192319
#
# Disc length: 2641 seconds
#
# Revision: 1
# Processed by: cddbd v1.5.2PL0 Copyright (c) Steve Scherf et al.
# Submitted via: ExactAudioCopy v0.99pb3
#
DISCID=a10a4f0c
DTITLE=Pe. Reginaldo Manzotti - Deus é Presença Real
DYEAR=2003
DGENRE=Gospel
TTITLE0=no poder da tua cruz
TTITLE1=vem com poder
TTITLE2=oração pela paz
TTITLE3=o pão de deus
TTITLE4=deus está aqui neste momento
TTITLE5=reveste-me
TTITLE6=canta povo de deus
TTITLE7=deixa a luz do céu entrar
TTITLE8=a busca
TTITLE9=mandou-me chamar
TTITLE10=alma de cristo (oração de Santo Inácio)
TTITLE11=benção sacerdotal
EXTD=
EXTT0=
EXTT1=
EXTT2=
EXTT3=
EXTT4=
EXTT5=
EXTT6=
EXTT7=
EXTT8=
EXTT9=
EXTT10=
EXTT11=
PLAYORDER=
